<svg width="1200" height="900" viewBox="0 0 1200 900" fill="none" xmlns="http://www.w3.org/2000/svg">
  <rect width="1200" height="900" rx="48" fill="#07131D"/>
  <rect x="28" y="28" width="1144" height="844" rx="36" fill="url(#bg)"/>
  <circle cx="924" cy="158" r="198" fill="url(#glow1)"/>
  <circle cx="248" cy="754" r="220" fill="url(#glow2)"/>
  <g filter="url(#shadow)">
    <path d="M360 190C426 170 496 160 600 160C704 160 774 170 840 190L888 642C842 670 792 688 718 704L658 774H542L482 704C408 688 358 670 312 642L360 190Z" fill="#0F1E2B"/>
    <path d="M420 224C462 212 515 206 600 206C685 206 738 212 780 224L806 618C754 638 696 648 600 648C504 648 446 638 394 618L420 224Z" fill="url(#body)"/>
    <path d="M394 618L452 774H548L512 648L394 618Z" fill="#132532"/>
    <path d="M806 618L748 774H652L688 648L806 618Z" fill="#132532"/>
    <rect x="430" y="250" width="340" height="44" rx="22" fill="#DDE8F8"/>
    <text x="485" y="279" fill="#091420" font-family="Arial, sans-serif" font-size="26" font-weight="700">MENstruation</text>
    <rect x="470" y="318" width="260" height="236" rx="32" fill="#EDF3FF"/>
    <rect x="494" y="344" width="212" height="184" rx="28" fill="url(#core)"/>
    <path d="M524 382H676" stroke="#79F8FF" stroke-width="10" stroke-linecap="round" stroke-opacity="0.72"/>
    <path d="M540 426H660" stroke="#79F8FF" stroke-width="10" stroke-linecap="round" stroke-opacity="0.52"/>
    <path d="M552 470H648" stroke="#79F8FF" stroke-width="10" stroke-linecap="round" stroke-opacity="0.36"/>
  </g>
  <text x="92" y="716" fill="#F3FAFF" font-family="Arial, sans-serif" font-size="60" font-weight="700">Calecon couche Core</text>
  <text x="92" y="764" fill="#A8C0D4" font-family="Arial, sans-serif" font-size="30">Maintien boxer plus enveloppant pour le jeu assis.</text>
  <text x="92" y="816" fill="#79F8FF" font-family="Arial, sans-serif" font-size="26" font-weight="700">Absorption 7h • Coupe adulte • Onyx / Ice</text>
  <defs>
    <linearGradient id="bg" x1="86" y1="80" x2="1088" y2="834" gradientUnits="userSpaceOnUse">
      <stop stop-color="#091722"/>
      <stop offset="1" stop-color="#102534"/>
    </linearGradient>
    <linearGradient id="body" x1="420" y1="206" x2="780" y2="648" gradientUnits="userSpaceOnUse">
      <stop stop-color="#1E3B50"/>
      <stop offset="1" stop-color="#0E1924"/>
    </linearGradient>
    <linearGradient id="core" x1="494" y1="344" x2="706" y2="528" gradientUnits="userSpaceOnUse">
      <stop stop-color="#B0FFF9"/>
      <stop offset="1" stop-color="#64B8FF"/>
    </linearGradient>
    <radialGradient id="glow1" cx="0" cy="0" r="1" gradientUnits="userSpaceOnUse" gradientTransform="translate(924 158) rotate(90) scale(198)">
      <stop stop-color="#34F2E2"/>
      <stop offset="1" stop-color="#34F2E2" stop-opacity="0"/>
    </radialGradient>
    <radialGradient id="glow2" cx="0" cy="0" r="1" gradientUnits="userSpaceOnUse" gradientTransform="translate(248 754) rotate(90) scale(220)">
      <stop stop-color="#FF7F3F"/>
      <stop offset="1" stop-color="#FF7F3F" stop-opacity="0"/>
    </radialGradient>
    <filter id="shadow" x="264" y="130" width="672" height="700" filterUnits="userSpaceOnUse" color-interpolation-filters="sRGB">
      <feDropShadow dx="0" dy="28" stdDeviation="26" flood-color="#000000" flood-opacity="0.48"/>
    </filter>
  </defs>
</svg>
